<svg width="71" height="56" viewBox="0 0 71 56" fill="none" xmlns="http://www.w3.org/2000/svg">
<path d="M0 4C0 1.79086 1.79086 0 4 0H70.8V52C70.8 54.2091 69.0091 56 66.8 56H0V4Z" fill="#280555"/>
<path d="M42.2667 31.3333C42.4 30.2333 42.5 29.1333 42.5 28C42.5 26.8666 42.4 25.7666 42.2667 24.6666H47.9C48.1667 25.7333 48.3334 26.85 48.3334 28C48.3334 29.15 48.1667 30.2666 47.9 31.3333M39.3167 40.6C40.3167 38.75 41.0834 36.75 41.6167 34.6666H46.5334C44.9187 37.4471 42.3569 39.5533 39.3167 40.6ZM38.9 31.3333H31.1C30.9334 30.2333 30.8334 29.1333 30.8334 28C30.8334 26.8666 30.9334 25.75 31.1 24.6666H38.9C39.05 25.75 39.1667 26.8666 39.1667 28C39.1667 29.1333 39.05 30.2333 38.9 31.3333ZM35 41.2666C33.6167 39.2666 32.5 37.05 31.8167 34.6666H38.1834C37.5 37.05 36.3834 39.2666 35 41.2666ZM28.3334 21.3333H23.4667C25.0644 18.545 27.6245 16.4354 30.6667 15.4C29.6667 17.25 28.9167 19.25 28.3334 21.3333ZM23.4667 34.6666H28.3334C28.9167 36.75 29.6667 38.75 30.6667 40.6C27.6305 39.5538 25.0739 37.447 23.4667 34.6666ZM22.1 31.3333C21.8334 30.2666 21.6667 29.15 21.6667 28C21.6667 26.85 21.8334 25.7333 22.1 24.6666H27.7334C27.6 25.7666 27.5 26.8666 27.5 28C27.5 29.1333 27.6 30.2333 27.7334 31.3333M35 14.7166C36.3834 16.7166 37.5 18.95 38.1834 21.3333H31.8167C32.5 18.95 33.6167 16.7166 35 14.7166ZM46.5334 21.3333H41.6167C41.0943 19.2693 40.3219 17.2768 39.3167 15.4C42.3834 16.45 44.9334 18.5666 46.5334 21.3333ZM35 11.3333C25.7834 11.3333 18.3334 18.8333 18.3334 28C18.3334 32.4203 20.0893 36.6595 23.2149 39.7851C24.7626 41.3327 26.5999 42.5604 28.622 43.398C30.6441 44.2355 32.8113 44.6666 35 44.6666C39.4203 44.6666 43.6595 42.9107 46.7852 39.7851C49.9108 36.6595 51.6667 32.4203 51.6667 28C51.6667 25.8113 51.2356 23.644 50.398 21.6219C49.5605 19.5998 48.3328 17.7625 46.7852 16.2149C45.2375 14.6672 43.4002 13.4396 41.3781 12.602C39.356 11.7644 37.1887 11.3333 35 11.3333Z" fill="#6E18DB"/>
</svg>
