<svg width="71" height="56" viewBox="0 0 71 56" fill="none" xmlns="http://www.w3.org/2000/svg">
<path d="M0 4C0 1.79086 1.79086 0 4 0H70.8V52C70.8 54.2091 69.0091 56 66.8 56H0V4Z" fill="#280555"/>
<path d="M50.8875 35V40.25C50.8875 43.1497 43.9525 45.5 35.4 45.5C26.8474 45.5 19.9125 43.1497 19.9125 40.25V35C19.9125 37.8997 26.8474 40.25 35.4 40.25C43.9525 40.25 50.8875 37.8997 50.8875 35ZM35.4 33.25C26.8474 33.25 19.9125 30.8997 19.9125 28V33.25C19.9125 36.1497 26.8474 38.5 35.4 38.5C43.9525 38.5 50.8875 36.1497 50.8875 33.25V28C50.8875 30.8997 43.9525 33.25 35.4 33.25ZM35.4 10.5C26.8474 10.5 19.9125 12.8503 19.9125 15.75V19.25C19.9125 22.1497 26.8474 24.5 35.4 24.5C43.9525 24.5 50.8875 22.1497 50.8875 19.25V15.75C50.8875 12.8503 43.9525 10.5 35.4 10.5ZM35.4 26.25C26.8474 26.25 19.9125 23.8997 19.9125 21V26.25C19.9125 29.1497 26.8474 31.5 35.4 31.5C43.9525 31.5 50.8875 29.1497 50.8875 26.25V21C50.8875 23.8997 43.9525 26.25 35.4 26.25Z" fill="#5516A4"/>
</svg>
