<svg width="71" height="54" viewBox="0 0 71 54" fill="none" xmlns="http://www.w3.org/2000/svg">
<path d="M0 4C0 1.79086 1.79086 0 4 0H71V50C71 52.2091 69.2091 54 67 54H0V4Z" fill="#280555"/>
<path d="M26.2 21.1907L20.4282 26L26.2 30.8094C26.3914 30.9663 26.5499 31.1595 26.6663 31.3779C26.7827 31.5963 26.8547 31.8356 26.8781 32.082C26.9016 32.3284 26.876 32.577 26.8029 32.8134C26.7298 33.0499 26.6106 33.2695 26.4522 33.4597C26.2938 33.6498 26.0993 33.8067 25.88 33.9214C25.6607 34.036 25.4208 34.1061 25.1742 34.1276C24.9277 34.149 24.6793 34.1215 24.4435 34.0465C24.2076 33.9715 23.9889 33.8506 23.8 33.6907L16.3 27.4407C16.0888 27.2647 15.9188 27.0444 15.8022 26.7955C15.6856 26.5465 15.6251 26.275 15.6251 26C15.6251 25.7251 15.6856 25.4536 15.8022 25.2046C15.9188 24.9556 16.0888 24.7354 16.3 24.5594L23.8 18.3094C24.1826 17.9959 24.6737 17.8462 25.1661 17.8931C25.6586 17.9399 26.1126 18.1795 26.4292 18.5596C26.7458 18.9397 26.8994 19.4295 26.8564 19.9223C26.8135 20.4151 26.5776 20.871 26.2 21.1907ZM53.7 24.5594L46.2 18.3094C46.0111 18.1495 45.7925 18.0286 45.5566 17.9536C45.3208 17.8786 45.0724 17.851 44.8258 17.8725C44.5793 17.894 44.3394 17.9641 44.1201 18.0787C43.9007 18.1933 43.7062 18.3502 43.5478 18.5404C43.3894 18.7306 43.2703 18.9502 43.1972 19.1867C43.1241 19.4231 43.0985 19.6717 43.1219 19.9181C43.1454 20.1644 43.2174 20.4037 43.3338 20.6222C43.4501 20.8406 43.6086 21.0338 43.8 21.1907L49.5719 26L43.8 30.8094C43.6086 30.9663 43.4501 31.1595 43.3338 31.3779C43.2174 31.5963 43.1454 31.8356 43.1219 32.082C43.0985 32.3284 43.1241 32.577 43.1972 32.8134C43.2703 33.0499 43.3894 33.2695 43.5478 33.4597C43.7062 33.6498 43.9007 33.8067 44.1201 33.9214C44.3394 34.036 44.5793 34.1061 44.8258 34.1276C45.0724 34.149 45.3208 34.1215 45.5566 34.0465C45.7925 33.9715 46.0111 33.8506 46.2 33.6907L53.7 27.4407C53.9113 27.2647 54.0812 27.0444 54.1978 26.7955C54.3145 26.5465 54.3749 26.275 54.3749 26C54.3749 25.7251 54.3145 25.4536 54.1978 25.2046C54.0812 24.9556 53.9113 24.7354 53.7 24.5594ZM40.6407 10.4875C40.4092 10.4034 40.1634 10.3656 39.9174 10.3764C39.6714 10.3873 39.4299 10.4465 39.2067 10.5507C38.9835 10.6548 38.7831 10.802 38.6168 10.9836C38.4505 11.1653 38.3216 11.3779 38.2375 11.6094L28.2375 39.1094C28.068 39.5767 28.091 40.0921 28.3013 40.5424C28.5117 40.9928 28.8923 41.3411 29.3594 41.511C29.5645 41.5867 29.7814 41.6253 30 41.625C30.385 41.6251 30.7607 41.5067 31.076 41.2858C31.3913 41.065 31.631 40.7525 31.7625 40.3907L41.7625 12.8907C41.8467 12.6592 41.8845 12.4134 41.8736 12.1674C41.8628 11.9214 41.8036 11.6799 41.6994 11.4567C41.5952 11.2335 41.4481 11.0331 41.2664 10.8668C41.0848 10.7005 40.8721 10.5716 40.6407 10.4875Z" fill="#6E18DB"/>
</svg>
