<svg xmlns="http://www.w3.org/2000/svg" xmlns:xlink="http://www.w3.org/1999/xlink" viewBox="0,0,256,256" width="48px" height="48px" fill-rule="nonzero"><g fill="#5516a4" fill-rule="nonzero" stroke="none" stroke-width="1" stroke-linecap="butt" stroke-linejoin="miter" stroke-miterlimit="10" stroke-dasharray="" stroke-dashoffset="0" font-family="none" font-weight="none" font-size="none" text-anchor="none" style="mix-blend-mode: normal"><g transform="scale(10.66667,10.66667)"><path d="M13.44531,1c1.1,2.193 -3.9392,3.54509 -4.4082,5.37109c-0.429,1.678 2.99114,3.62891 2.99414,3.62891c-0.52,-0.694 -0.89597,-1.26861 -1.41797,-2.34961c-0.882,-1.828 5.21103,-3.71339 2.83203,-6.65039zM17,4c0,0 -3.80014,0.23088 -3.99414,2.54688c-0.086,1.031 0.9983,1.58103 1.0293,2.33203c0.026,0.612 -0.64844,1.12109 -0.64844,1.12109c0,0 1.11409,-0.17047 1.49609,-1.10547c0.423,-1.037 -0.71294,-1.794 -0.58594,-2.625c0.121,-0.794 2.70313,-2.26953 2.70313,-2.26953zM10.16406,10.00195c0,0 -4.16406,-0.06033 -4.16406,1.13867c0,0.57188 1.16022,0.88977 2.76367,1.00586c-0.65016,0.02845 -1.56445,0.53932 -1.56445,1.03906c0,1.034 4.9032,1.83031 8.5332,0.32031l-1.25586,-0.81836c-2.45003,0.83128 -6.95297,0.56836 -5.66797,-0.53711c1.90774,0.13251 4.43936,-0.02203 6.54102,-0.4375c0,0 0.88511,-0.50053 1.16211,-0.76953c-2.553,0.528 -8.22461,0.37502 -8.22461,-0.08398c0,-0.423 1.87695,-0.85742 1.87695,-0.85742zM18.59375,10.00195c-0.45776,-0.01985 -0.959,0.13205 -1.39062,0.45117c0.901,-0.202 1.66211,0.3712 1.66211,1.0332c0,1.488 -2.06445,2.89844 -2.06445,2.89844c0,0 3.19922,-0.38113 3.19922,-2.82812c0,-1.01063 -0.64331,-1.5216 -1.40625,-1.55469zM9.74414,14.3418c-0.896,0 -1.47656,0.62213 -1.47656,1.07813c0,1.411 5.3468,1.46039 7.4668,0.02539l-1.34766,-0.86914c-1.583,0.751 -5.55758,0.85363 -4.64258,-0.23437zM5.87891,16.69336c-1.28864,-0.04144 -1.87891,0.6343 -1.87891,1.18555c0,2.932 14,2.78992 14,-0.20508c0,-0.498 -0.54228,-0.73466 -0.73828,-0.84766c1.143,2.864 -11.58984,2.66756 -11.58984,0.97656c0,-0.385 0.67325,-0.77666 1.53125,-0.59766c0,0 -0.31352,-0.37326 -0.72852,-0.44727c-0.21288,-0.03762 -0.41161,-0.05853 -0.5957,-0.06445zM20,18.70703c-2.201,2.229 -8.25919,3.58203 -13.86719,2.20703c5.634,2.361 13.84019,0.52797 13.86719,-2.20703z"></path></g></g></svg>